<svg width="202" height="236" viewBox="0 0 202 236" fill="none" xmlns="http://www.w3.org/2000/svg">
<path d="M126.754 148.499L142.972 126.156L200.496 226.72L168.998 226.413L126.754 148.499Z" fill="#13394C" fill-opacity="0.94"/>
<path d="M63.5 219.5L0 100H31.5L80 190.5L63.5 219.5Z" fill="#13394C" fill-opacity="0.94"/>
<path d="M131.243 56.5085L200 0L193.33 82.5894L163.569 96.1128L90.1948 227H69.1573L63 218.789L143.558 82.5894L131.243 56.5085Z" fill="#A87643"/>
<path d="M121 196L139.187 226H102.813L121 196Z" fill="#5D0C0C"/>
<rect x="142" y="199" width="4" height="28" fill="#5D0C0C"/>
<ellipse cx="154.582" cy="88.9613" rx="12.5" ry="4" transform="rotate(25.3176 154.582 88.9613)" fill="#975F33"/>
<path d="M190.789 15.6596L151.903 83.3437L160.206 89.137L190.789 15.6596Z" fill="#975F33"/>
</svg>
